# xmcd
#
# Track frame offsets:
#	187
#	24637
#	42037
#	60712
#	73087
#	89625
#	114262
#	130500
#	140962
#	148462
#	158137
#	174187
#	187162
#	203662
#	215287
#	242100
#	257137
#	273675
#
# Disc length: 3767 seconds
#
# Revision: 2
# Processed by: cddbd v1.5.2PL0 Copyright (c) Steve Scherf et al.
# Submitted via: audiograbber 1.83.01
#
DISCID=180eb512
DTITLE=Various Artist - Louisiana Scrapbook
DYEAR=1987
DGENRE=Blues
TTITLE0=The Dirty Dozen Brass Band - Mardi Gras In New Orleans
TTITLE1=Irma Thomas - The New Rules
TTITLE2=Johnny Adams - She Said The Same Things To Me
TTITLE3=Johnny Adams - We Don't See Eye To Eye
TTITLE4=Phillip Walker - Wondering
TTITLE5=Clarence Brown - Song For Reneé
TTITLE6=Beausoleil - It's You I Love
TTITLE7=Jo-El Sonnier - Louisiana Blues
TTITLE8=D.L. Menard - The Bachelor's Life
TTITLE9=Marcia Ball - Don't You Know I Love You
TTITLE10=Buckwheat Zydeco - Think It Over One More Time
TTITLE11=Lonesome Sundown and Phillip Walker - Steppin' Up In Class
TTITLE12=Alvin 'Red' Tyler - No Relation
TTITLE13=James Booker - One For The Highway
TTITLE14=Walter 'Wolfman' Washington - You Got Me Worried
TTITLE15=Irma Thomas - Gonna Cry 'Til My Tears Run Dry
TTITLE16=The Dirty Dozen Brass Band - The Flintstones Meets The President (Meet
TTITLE16=s The Dirty Dozen)
TTITLE17=Tuts Washington - When The Saints Go Marching In
EXTD=
EXTT0=
EXTT1=
EXTT2=
EXTT3=
EXTT4=
EXTT5=
EXTT6=
EXTT7=
EXTT8=
EXTT9=
EXTT10=
EXTT11=
EXTT12=
EXTT13=
EXTT14=
EXTT15=
EXTT16=
EXTT17=
PLAYORDER=
